<?xml version="1.0" encoding="UTF-8"?>
<svg version="1.1" xmlns="http://www.w3.org/2000/svg" width="898" height="1049">
<path d="M0 0 C4.15653442 0.01044533 8.31262345 -0.0129419 12.4690876 -0.03572166 C22.29590848 -0.08872269 32.12156174 -0.08489544 41.94841003 -0.04450178 C52.01018522 -0.00410831 62.06825184 -0.05843025 72.12950993 -0.16026127 C80.83368342 -0.24499696 89.53670439 -0.27012622 98.24126339 -0.2493943 C103.41104257 -0.23760059 108.57840042 -0.24639141 113.74781799 -0.31286192 C137.80287769 -0.5937903 155.8876278 0.51126124 175.87652588 14.82932711 C179.43147612 17.34264368 183.17092065 19.46883229 186.95671082 21.60930681 C188.25410832 22.37706519 189.54989726 23.14755403 190.84342957 23.92180681 C197.53129508 27.89190051 204.28659022 31.74794012 211.03096008 35.62102556 C212.69155762 36.57466694 214.35149065 37.52946516 216.01139832 38.48430681 C216.976745 39.03860369 217.94209167 39.59290056 218.93669128 40.16399431 C220.79110675 41.2546102 222.60418078 42.41595346 224.39421082 43.60930681 C223.66415074 49.84991652 222.64933142 55.99083721 221.49967957 62.16594744 C219.61534236 72.52980209 219.15299127 82.7099704 219.14421082 93.23430681 C219.14353607 93.96373491 219.14286133 94.69316301 219.14216614 95.444695 C219.16104036 108.359957 220.0516568 120.88638175 222.39421082 133.60930681 C222.56581726 134.54887224 222.73742371 135.48843767 222.91423035 136.45647478 C236.2180062 207.04138743 275.55947271 271.0082863 323.95866394 323.05608416 C325.47407497 324.69571765 326.97426808 326.34835104 328.47233582 328.00383806 C333.20502495 333.21818241 337.88719948 338.30821146 343.30436707 342.82805681 C345.90102529 345.04128326 348.3511528 347.39174456 350.83171082 349.73430681 C361.06610481 359.23790939 372.35150573 367.65526526 384.26921082 374.92571306 C386.69535939 376.84790063 386.82695559 377.68213405 387.39421082 380.60930681 C379.64875435 380.86404143 372.23890069 380.11237013 364.58171082 378.98430681 C363.36467468 378.80609392 362.14763855 378.62788103 360.89372253 378.44426775 C270.50494811 364.74513563 185.00643663 325.54841068 104.39421082 269.60930681 C103.68345398 269.10576677 102.97269714 268.60222673 102.24040222 268.08342791 C91.10452383 260.16679973 80.19004149 251.98245107 69.39421082 243.60930681 C68.77030457 243.12719744 68.14639832 242.64508806 67.50358582 242.14836931 C59.516496 235.97032121 51.71761603 229.60731835 44.05485535 223.03167009 C42.33797114 221.56113681 40.61472399 220.09833758 38.89030457 218.63665056 C32.65431787 213.33871512 26.51475048 207.96047565 20.51115417 202.4000783 C17.8491559 199.9349006 15.15594549 197.52439561 12.39421082 195.17180681 C8.37590494 191.69764653 4.66286721 187.93614376 0.95671082 184.13494158 C-1.75551883 181.37434507 -4.53911022 178.7778059 -7.48078918 176.26165056 C-11.8269126 172.50113836 -15.71398017 168.39426757 -19.60578918 164.17180681 C-24.24787717 159.16252241 -28.93250328 154.22714268 -33.80134583 149.43669939 C-36.24089181 146.96612684 -38.50339322 144.36234906 -40.76594543 141.73040056 C-42.80087737 139.38439623 -44.88869885 137.09194231 -46.98078918 134.79680681 C-50.80493397 130.55489831 -54.45468374 126.20379584 -58.04328918 121.76165056 C-59.93599831 119.42070801 -61.85829094 117.1068147 -63.79328918 114.80071306 C-112.60578918 56.48324036 -112.60578918 56.48324036 -112.60578918 43.60930681 C-111.89374329 43.20317156 -111.18169739 42.7970363 -110.44807434 42.37859392 C-95.33304093 33.75507214 -80.23326752 25.10626565 -65.16438293 16.40227556 C-64.17098404 15.85769701 -63.17758514 15.31311846 -62.15408325 14.75203753 C-59.65455389 13.32247027 -57.51031482 11.7418008 -55.30978394 9.88895464 C-39.45971805 -2.43064157 -19.01436701 -0.07608056 0 0 Z " fill="#0070B8" transform="translate(510.6057891845703,624.3906931877136)"/>
<path d="M0 0 C2.32470395 2.88878961 3.88870768 5.68963938 5.34765625 9.09375 C6.00060669 10.61718018 6.00060669 10.61718018 6.66674805 12.17138672 C7.35764526 13.81905029 7.35764526 13.81905029 8.0625 15.5 C8.54565674 16.65129395 9.02881348 17.80258789 9.52661133 18.98876953 C45.9985585 107.01876043 54.53753052 202.65352394 7.6237793 499.11755371 C7.02920956 500.91185115 6.44119178 502.70831575 5.85351562 504.50488281 C-3.59134824 533.2888261 -15.34722453 560.97677498 -29 588 C-29.48082031 588.95213379 -29.96164062 589.90426758 -30.45703125 590.88525391 C-31.70883988 593.34693378 -32.97334465 595.80112843 -34.25 598.25 C-34.60868164 598.94150146 -34.96736328 599.63300293 -35.33691406 600.34545898 C-37.75515605 604.87757803 -37.75515605 604.87757803 -40 606 C-42.25219727 604.98706055 -42.25219727 604.98706055 -45.06640625 603.38671875 C-46.61702759 602.51188843 -46.61702759 602.51188843 -48.19897461 601.61938477 C-49.86391968 600.66310181 -49.86391968 600.66310181 -51.5625 599.6875 C-52.70275635 599.04031006 -53.8430127 598.39312012 -55.01782227 597.72631836 C-61.8346366 593.84659972 -68.6233573 589.91969887 -75.3684082 585.91650391 C-83.26244139 581.23183875 -91.22516568 576.66601015 -99.18139648 572.08813477 C-100.25075439 571.47252686 -101.3201123 570.85691895 -102.421875 570.22265625 C-103.37674805 569.67359619 -104.33162109 569.12453613 -105.31542969 568.55883789 C-106.20133789 568.04442139 -107.08724609 567.53000488 -108 567 C-108.86794189 566.55350098 -109.73588379 566.10700195 -110.63012695 565.64697266 C-113.58731229 563.59184004 -114.75812031 561.57149048 -116.49609375 558.42578125 C-117.44657593 556.73074463 -117.44657593 556.73074463 -118.41625977 555.00146484 C-119.09004197 553.77182933 -119.76378779 552.54217387 -120.4375 551.3125 C-121.1469017 550.04036624 -121.85777841 548.76905399 -122.57006836 547.49853516 C-123.65986301 545.55418645 -124.74871269 543.60937368 -125.83296204 541.66192627 C-129.16123647 535.68478979 -132.59771187 529.77398059 -136.0625 523.875 C-142.79431224 512.37258956 -149.4565679 500.83074807 -156.10888672 489.28222656 C-159.23680148 483.85340058 -162.36858448 478.42680719 -165.5 473 C-166.75001879 470.83334417 -168.00001878 468.6666775 -169.25 466.5 C-169.86875 465.4275 -170.4875 464.355 -171.125 463.25 C-176.75 453.5 -176.75 453.5 -178.62719727 450.24609375 C-179.86976019 448.0923828 -181.11243489 445.93873633 -182.35522461 443.78515625 C-185.25314623 438.76315738 -188.15003349 433.74057193 -191.04275513 428.71557617 C-192.05947198 426.94954478 -193.07655658 425.18372569 -194.09375 423.41796875 C-195.36400873 421.21265845 -196.63359018 419.00695784 -197.90234375 416.80078125 C-198.48242188 415.79402344 -199.0625 414.78726562 -199.66015625 413.75 C-200.41244507 412.44289063 -200.41244507 412.44289063 -201.17993164 411.109375 C-202.82937639 408.11659636 -202.82937639 408.11659636 -204.53076172 406.09634399 C-210.76448909 397.63577638 -209.66714524 388.66376051 -209.3671875 378.6484375 C-209.33350782 376.77947556 -209.30255565 374.91046266 -209.27420044 373.04141235 C-209.19276075 368.15147418 -209.07457591 363.26310723 -208.94842529 358.37414551 C-208.82600039 353.37355123 -208.73874984 348.3723528 -208.6484375 343.37109375 C-208.46649209 333.57982724 -208.24567725 323.78986036 -208 314 C-206.7188846 313.5185488 -205.4376718 313.03735677 -204.15641785 312.55627441 C-203.44295291 312.28828285 -202.72948797 312.02029129 -201.99440289 311.74417877 C-199.79151992 310.92220907 -197.57958672 310.12874963 -195.36328125 309.34375 C-169.43517351 299.96926779 -146.58595734 286.32884445 -126 268 C-125.39776611 267.48244141 -124.79553223 266.96488281 -124.17504883 266.43164062 C-112.10412587 256.03537401 -100.70487401 244.64406442 -91 232 C-90.16268339 230.96149901 -89.32268404 229.92515717 -88.48046875 228.890625 C-39.94531296 168.90750312 -4.1655268 86.78468179 -1.17578125 9.13671875 C-1.0015194 6.0271128 -0.56935343 3.05969607 0 0 Z " fill="#FEA514" transform="translate(786,43)"/>
<path d="M0 0 C1.66754333 0.00211487 1.66754333 0.00211487 3.36877441 0.00427246 C6.0935114 0.00793179 8.81823725 0.01305703 11.54296875 0.01953125 C11.91841865 10.74773558 12.2002913 21.47430931 12.3719635 32.20781326 C12.45448472 37.19563581 12.5657861 42.17887754 12.75 47.1640625 C13.65153159 72.22845652 12.80868263 90.40815742 -2.3636322 111.05770874 C-5.98774862 116.18524981 -8.95564482 121.6688224 -12.01953125 127.14453125 C-13.25741534 129.29469945 -14.49793833 131.44335259 -15.7421875 133.58984375 C-18.85707976 138.98046761 -21.96924792 144.37265609 -25.08007812 149.765625 C-26.95412688 153.01449621 -28.82862553 156.26310757 -30.703125 159.51171875 C-33.21772561 163.87018513 -35.73057786 168.22965316 -38.2421875 172.58984375 C-44.82576514 184.01566273 -51.43787895 195.4236011 -58.09765625 206.80517578 C-61.33141335 212.342619 -64.53771949 217.89477625 -67.71484375 223.46484375 C-68.25362907 224.40938919 -68.25362907 224.40938919 -68.80329895 225.37301636 C-70.55217194 228.44080244 -72.29820227 231.51017208 -74.04077148 234.58154297 C-75.28457637 236.768046 -76.53505966 238.95076894 -77.79345703 241.12890625 C-78.82359433 242.91887185 -79.83610089 244.71926855 -80.81982422 246.53515625 C-83.74992052 251.72141504 -83.74992052 251.72141504 -87.09765625 253.1328125 C-88.20625 253.42542969 -89.31484375 253.71804688 -90.45703125 254.01953125 C-94.12469625 255.93488467 -97.65443146 258.08734508 -101.20703125 260.20703125 C-103.35634273 261.47598581 -105.50609822 262.74418854 -107.65625 264.01171875 C-108.7704834 264.67010742 -109.8847168 265.32849609 -111.03271484 266.00683594 C-117.76686201 269.96493584 -124.54708642 273.8437476 -131.32568359 277.72509766 C-136.02691895 280.42553308 -140.70436304 283.14037682 -145.2890625 286.03515625 C-145.98636475 286.47239014 -146.68366699 286.90962402 -147.40209961 287.36010742 C-148.64253273 288.14547969 -149.87470526 288.9441394 -151.09594727 289.7590332 C-152.69921875 290.7734375 -152.69921875 290.7734375 -155.45703125 292.01953125 C-159.31370668 291.11939638 -161.87316173 287.84163275 -164.64453125 285.14453125 C-211.95850707 240.72085908 -283.2512761 226.7218772 -346.14453125 226.83203125 C-346.85079651 226.83296783 -347.55706177 226.83390442 -348.284729 226.83486938 C-408.61890527 227.00566617 -474.31649272 237.55261431 -527.421875 267.40234375 C-530.45703125 269.01953125 -530.45703125 269.01953125 -532.45703125 269.01953125 C-531.1260172 265.29631709 -529.48472727 262.45386358 -527.078125 259.32421875 C-526.4087793 258.44902588 -525.73943359 257.57383301 -525.04980469 256.67211914 C-524.33856445 255.75551514 -523.62732422 254.83891113 -522.89453125 253.89453125 C-522.1665332 252.94892334 -521.43853516 252.00331543 -520.68847656 251.02905273 C-515.72115699 244.5971386 -510.7022716 238.22780147 -505.45703125 232.01953125 C-504.79356689 231.22289062 -504.79356689 231.22289062 -504.11669922 230.41015625 C-498.20993989 223.31964962 -492.1421462 216.5336635 -485.54467773 210.07763672 C-482.96326408 207.54808278 -480.50251 204.99882973 -478.20703125 202.20703125 C-475.61454076 199.0703445 -472.68008971 196.52318691 -469.58203125 193.89453125 C-467.32563822 191.90359622 -465.24191582 189.80184109 -463.14453125 187.64453125 C-459.06717081 183.51112462 -454.7179289 179.87824937 -450.1875 176.25390625 C-447.64402956 174.17255419 -445.23745872 172.0075181 -442.83203125 169.76953125 C-436.43499692 163.94944463 -429.51382353 158.82689001 -422.60351562 153.63964844 C-420.64151871 152.15877816 -418.6951665 150.66023076 -416.75390625 149.15234375 C-345.13740548 93.89133458 -259.24920289 55.81707006 -27.45703125 1.01953125 C-26.7304834 0.94895508 -26.00393555 0.87837891 -25.25537109 0.80566406 C-16.83125592 0.00538371 -8.45471866 -0.02043342 0 0 Z " fill="#74BE1D" transform="translate(543.45703125,356.98046875)"/>
<path d="M0 0 C10.29992577 7.87543026 17.03249191 17.70505229 19.40625 30.578125 C20.78903342 41.56357109 18.97035188 53.48838358 12.6875 62.8125 C4.70335447 73.09389464 -4.36943207 80.19447035 -17.3125 82.8125 C-30.94443791 84.36037599 -42.94470015 82.13175093 -54.06640625 73.71484375 C-62.21809529 66.81071755 -69.52305957 56.76747674 -70.48950195 45.8046875 C-70.94822874 29.95576836 -69.23409591 18.13579806 -58.3125 5.8125 C-42.83369969 -9.43570365 -18.16246737 -11.92345186 0 0 Z " fill="#0070B9" transform="translate(592.3125,520.1875)"/>
</svg>
